<?xml version="1.0" encoding="UTF-8"?>
<svg id="Mahindra_Tech_Vertical_Logo_Lockup_RGB" data-name="Mahindra Tech Vertical Logo Lockup RGB" xmlns="http://www.w3.org/2000/svg" viewBox="0 0 805.08 296.25">
  <defs>
    <style>
      .cls-1 {
        fill: #e31837;
        fill-rule: evenodd;
      }

      .cls-1, .cls-2 {
        stroke-width: 0px;
      }

      .cls-2 {
        fill: #4d4d4f;
      }
    </style>
  </defs>
  <g>
    <path class="cls-2" d="M127.82,74.92h-24.82v46.85h-17.33v-46.85h-24.82v-14.11h66.96v14.11Z"/>
    <path class="cls-2" d="M136.15,121.77v-60.95h58.52v13.24h-41.27v10.36h38.75v12.28h-38.75v11.93h43.28v13.15h-60.52Z"/>
    <path class="cls-2" d="M204.02,92.6c0-7.6,1.48-13.8,4.44-18.59,2.96-4.79,7.36-8.33,13.19-10.62,5.84-2.29,13.02-3.44,21.55-3.44,2.84,0,5.4.06,7.66.17,2.26.12,4.38.3,6.36.57,1.97.26,3.9.58,5.79.96,1.89.38,3.84.86,5.88,1.44l-3.48,12.45c-2.55-.52-5.01-.94-7.36-1.26-2.35-.32-4.66-.57-6.92-.74-2.26-.17-4.53-.26-6.79-.26-3.95,0-7.34.36-10.19,1.09-2.84.73-5.17,1.84-6.97,3.35-1.8,1.51-3.13,3.47-4,5.88-.87,2.41-1.31,5.3-1.31,8.66,0,3.02.42,5.63,1.26,7.84.84,2.21,2.16,3.99,3.96,5.36,1.8,1.36,4.06,2.38,6.79,3.05,2.73.67,6.01,1,9.84,1s7.91-.25,12.06-.74c4.15-.49,8.08-1.17,11.8-2.05l3.13,12.1c-1.97.58-3.98,1.1-6.01,1.57-2.03.47-4.22.86-6.57,1.18-2.35.32-4.92.58-7.71.78-2.79.2-5.89.3-9.32.3-6.04,0-11.36-.57-15.98-1.7-4.62-1.13-8.49-2.89-11.62-5.27-3.13-2.38-5.5-5.47-7.1-9.27-1.6-3.8-2.39-8.4-2.39-13.8Z"/>
    <path class="cls-2" d="M280.26,121.77v-60.95h17.41v26.04h33.53v-26.04h17.41v60.95h-17.41v-20.72h-33.53v20.72h-17.41Z"/>
  </g>
  <path class="cls-1" d="M207.33,174.53h46.52c10.56,0,19.19,8.32,19.19,18.5v42.36h-69.56c-6.43,0-11.69-5.07-11.69-11.27v-14.72c0-5.76,4.89-10.48,10.87-10.48h38.59l-4.09,8.57h-28.39c-1.26,0-2.62.93-2.62,2.26v11.58c0,1.33,1.36,2.26,2.62,2.26h49.24v-27.77c0-5.39-4.8-9.49-10.13-9.49h-46.19l5.63-11.8ZM589.64,152.39v83h-67.84c-6.43,0-11.69-5.07-11.69-11.27v-31.1c0-10.17,8.64-18.5,19.19-18.5h38.65l-5.69,11.8h-27c-5.33,0-10.13,4.11-10.13,9.49v25.51c0,1.33,1.36,2.26,2.62,2.26h46.85v-71.2h15.03ZM351.29,235.38h15.03v-42.36c0-10.17-8.64-18.5-19.19-18.5h-31.92l-5.68,11.8h31.63c5.33,0,10.13,4.11,10.13,9.49v39.57ZM288.79,152.39v83h15.03v-83h-15.03ZM163.5,235.39h15.03v-42.36c0-10.17-8.64-18.5-19.19-18.5H60.86v60.86h15.03v-46.81c0-1.33,1.36-2.26,2.62-2.26h31.05c1.26,0,2.62.93,2.62,2.26v46.81h15.03v-46.81c0-1.33,1.36-2.26,2.62-2.26h23.54c5.33,0,10.13,4.11,10.13,9.49v39.57ZM668.05,174.53h-37.7c-10.56,0-19.19,8.32-19.19,18.5v42.36h15.03v-39.57c0-5.39,4.8-9.49,10.13-9.49h26.05l5.69-11.8ZM475.75,174.53c10.56,0,19.19,8.32,19.19,18.5v42.36h-15.03v-39.57c0-5.39-4.8-9.49-10.13-9.49h-36.1v49.06h-15.03v-60.83c18.99,0,38.04-.03,57.09-.03ZM384.97,178.37l15.03-8.55v65.57h-15.03v-57.02ZM400,161.26v-9.01h-15.03v17.57l15.03-8.56ZM678.51,174.53h46.52c10.56,0,19.19,8.32,19.19,18.5v42.36h-69.56c-6.43,0-11.69-5.07-11.69-11.27v-14.72c0-5.76,4.89-10.48,10.87-10.48h38.59l-4.09,8.57h-28.39c-1.26,0-2.62.93-2.62,2.26v11.58c0,1.33,1.36,2.26,2.62,2.26h49.24v-27.77c0-5.39-4.8-9.49-10.13-9.49h-46.19l5.63-11.8Z"/>
</svg>